<?xml version="1.0" standalone="no"?>
<!DOCTYPE svg PUBLIC "-//W3C//DTD SVG 20010904//EN"
 "http://www.w3.org/TR/2001/REC-SVG-20010904/DTD/svg10.dtd">
<svg version="1.0" xmlns="http://www.w3.org/2000/svg"
 width="419.000000pt" height="419.000000pt" viewBox="0 0 419.000000 419.000000"
 preserveAspectRatio="xMidYMid meet">
<metadata>
Created by potrace 1.11, written by Peter Selinger 2001-2013
</metadata>
<g transform="translate(0.000000,419.000000) scale(0.100000,-0.100000)"
fill="#000000" stroke="none">
<path d="M1640 2416 l0 -766 95 0 95 0 0 280 0 280 83 0 83 0 150 -277 150
-278 112 -3 c62 -1 112 0 112 3 0 3 -72 132 -161 286 -88 154 -159 282 -157
283 1 1 21 8 43 14 102 29 177 108 213 222 25 80 24 381 0 461 -36 116 -117
199 -231 235 -41 13 -108 18 -319 22 l-268 4 0 -766z m558 547 c20 -10 44 -29
54 -43 37 -51 46 -295 16 -402 -14 -48 -66 -97 -114 -109 -22 -4 -65 -9 -96
-9 l-58 0 0 296 0 297 81 -6 c46 -4 97 -14 117 -24z"/>
<path d="M2820 1260 l0 -290 50 0 c36 0 52 5 59 17 9 16 11 16 31 -2 31 -28
105 -26 155 5 58 36 89 111 83 205 -6 84 -27 128 -78 162 -40 28 -81 29 -137
3 l-43 -19 0 104 0 105 -60 0 -60 0 0 -290z m234 -2 c25 -35 21 -138 -5 -172
-22 -28 -56 -34 -90 -16 -16 9 -19 22 -19 95 0 75 2 85 22 99 33 23 74 20 92
-6z"/>
<path d="M3585 1525 c-31 -30 -32 -65 -2 -93 45 -43 127 -13 127 47 0 30 -43
71 -75 71 -14 0 -37 -11 -50 -25z"/>
<path d="M2045 1521 c-93 -43 -130 -139 -88 -228 19 -42 58 -67 133 -90 92
-27 111 -48 89 -97 -18 -40 -65 -44 -135 -12 -31 14 -60 26 -65 26 -5 0 -21
-19 -36 -41 -27 -41 -27 -41 -8 -56 80 -62 206 -76 285 -32 57 31 92 91 92
159 0 86 -32 118 -177 172 -57 22 -60 25 -60 58 0 45 35 60 98 41 87 -26 90
-26 115 18 l22 40 -25 17 c-70 46 -172 56 -240 25z"/>
<path d="M450 1245 l0 -275 25 0 25 0 0 120 0 120 45 0 45 0 95 -120 c78 -98
100 -120 121 -120 20 0 24 3 17 13 -5 6 -49 61 -97 121 l-87 109 52 26 c60 30
89 74 89 137 0 98 -75 143 -237 144 l-93 0 0 -275z m243 212 c35 -23 50 -78
34 -125 -17 -51 -78 -82 -164 -82 l-63 0 0 116 0 117 84 -5 c55 -3 93 -10 109
-21z"/>
<path d="M3322 1478 c-7 -7 -12 -17 -12 -22 0 -6 -5 -27 -10 -47 -8 -29 -16
-38 -40 -43 -26 -5 -30 -10 -30 -41 0 -29 4 -36 25 -41 25 -6 25 -7 25 -113 0
-124 15 -166 70 -194 39 -20 92 -17 141 9 l29 14 -23 35 c-18 28 -28 34 -52
32 l-30 -2 -3 107 -3 107 48 3 48 3 3 43 3 42 -50 0 -51 0 0 60 0 60 -38 0
c-21 0 -43 -5 -50 -12z"/>
<path d="M2477 1365 c-80 -28 -127 -99 -127 -192 0 -169 164 -262 313 -180 52
29 88 92 94 164 4 50 0 66 -24 113 -23 46 -37 60 -82 83 -61 30 -114 34 -174
12z m129 -106 c15 -16 19 -36 19 -89 0 -81 -19 -110 -72 -110 -54 0 -73 28
-73 108 0 86 16 112 69 112 26 0 44 -7 57 -21z"/>
<path d="M3570 1170 l0 -200 65 0 65 0 0 200 0 200 -65 0 -65 0 0 -200z"/>
<path d="M897 1354 c-11 -11 -8 -255 4 -298 27 -97 142 -123 228 -50 l30 25 3
-28 c2 -17 10 -29 21 -31 16 -3 17 11 17 192 0 189 -1 196 -20 196 -19 0 -20
-7 -20 -144 0 -143 0 -143 -27 -171 -32 -32 -63 -45 -103 -45 -75 0 -84 21
-90 205 -4 125 -8 150 -20 153 -9 1 -19 0 -23 -4z"/>
<path d="M1364 1350 c-33 -13 -64 -59 -64 -95 0 -44 35 -77 107 -99 100 -31
129 -81 78 -131 -29 -30 -89 -34 -136 -9 -17 8 -38 13 -47 9 -15 -6 -14 -9 6
-26 82 -66 221 -33 238 57 13 69 -19 104 -123 135 -52 15 -83 42 -83 73 0 52
77 80 144 52 61 -26 80 -1 21 27 -38 18 -106 21 -141 7z"/>
<path d="M1694 1350 c-34 -13 -64 -59 -64 -97 0 -45 32 -74 107 -97 100 -31
129 -81 78 -131 -29 -30 -89 -34 -142 -9 -24 12 -37 14 -45 6 -13 -13 42 -49
89 -58 50 -9 114 15 140 55 48 71 15 132 -87 166 -78 26 -100 42 -100 75 0 56
75 85 144 56 61 -26 80 -1 21 27 -38 18 -106 21 -141 7z"/>
</g>
</svg>
